{"accessors":[{"bufferView":0,"byteOffset":0,"componentType":5126,"count":24,"max":[6377422.0,1000.0,250.0],"min":[6376922.0,-1000.0,-250.0],"type":"VEC3"},{"bufferView":1,"byteOffset":0,"componentType":5126,"count":24,"type":"VEC3"},{"bufferView":2,"byteOffset":0,"componentType":5126,"count":24,"normalized":false,"type":"VEC2"},{"bufferView":3,"byteOffset":0,"componentType":5125,"count":36,"type":"SCALAR"}],"asset":{"generator":"VTK","version":"2.0"},"bufferViews":[{"buffer":0,"byteLength":288,"byteOffset":0,"target":34962},{"buffer":1,"byteLength":288,"byteOffset":0,"target":34962},{"buffer":2,"byteLength":192,"byteOffset":0,"target":34962},{"buffer":3,"byteLength":144,"byteOffset":0,"target":34963}],"buffers":[{"byteLength":288,"uri":"data:application/octet-stream;base64,"},{"byteLength":288,"uri":"data:application/octet-stream;base64,"},{"byteLength":192,"uri":"data:application/octet-stream;base64,"},{"byteLength":144,"uri":"data:application/octet-stream;base64,"}],"cameras":[{"perspective":{"aspectRatio":1.3333333333333333,"yfov":0.5235987755982988,"zfar":1000.01,"znear":0.01},"type":"perspective"}],"materials":[{"pbrMetallicRoughness":{"baseColorFactor":[1.0,0.0,0.0,1.0],"metallicFactor":0.0,"roughnessFactor":1.0}}],"meshes":[{"name":"mesh0","primitives":[{"attributes":{"NORMAL":1,"POSITION":0,"TEXCOORD_0":2},"indices":3,"material":0,"mode":4}]}],"nodes":[{"matrix":[2.220446049250314e-16,-3.330669073875469e-16,1.0000000000000002,0.0,1.0,2.220446049250313e-16,-2.220446049250313e-16,0.0,-2.2204460492503128e-16,1.0000000000000002,3.3306690738754696e-16,0.0,0.0,0.0,0.0,1.0],"mesh":0,"name":"mesh0"},{"camera":0,"matrix":[1.0,-0.0,0.0,-0.0,-0.0,1.0,-0.0,0.0,0.0,-0.0,1.0,-0.0,-0.0,0.0,1.0,1.0],"name":"Camera Node"},{"children":[0,1],"name":"Renderer Node"}],"scene":0,"scenes":[{"name":"Layer 0","nodes":[2]}]}